<svg width="48" height="39" viewBox="0 0 48 39" fill="none" xmlns="http://www.w3.org/2000/svg">
<path d="M29.4601 0.455754C28.1851 0.0882538 26.8576 0.830754 26.4901 2.10575L16.8901 35.7058C16.5226 36.9808 17.2651 38.3083 18.5401 38.6758C19.8151 39.0433 21.1426 38.3008 21.5101 37.0258L31.1101 3.42575C31.4776 2.15075 30.7351 0.823254 29.4601 0.455754ZM35.5051 9.46325C34.5676 10.4008 34.5676 11.9233 35.5051 12.8608L42.2026 19.5658L35.4976 26.2708C34.5601 27.2083 34.5601 28.7308 35.4976 29.6683C36.4351 30.6058 37.9576 30.6058 38.8951 29.6683L47.2951 21.2683C48.2326 20.3308 48.2326 18.8083 47.2951 17.8708L38.8951 9.47075C37.9576 8.53325 36.4351 8.53325 35.4976 9.47075L35.5051 9.46325ZM12.5026 9.46325C11.5651 8.52575 10.0426 8.52575 9.10508 9.46325L0.705078 17.8633C-0.232422 18.8008 -0.232422 20.3233 0.705078 21.2608L9.10508 29.6608C10.0426 30.5983 11.5651 30.5983 12.5026 29.6608C13.4401 28.7233 13.4401 27.2008 12.5026 26.2633L5.79758 19.5658L12.5026 12.8608C13.4401 11.9233 13.4401 10.4008 12.5026 9.46325Z" fill="url(#paint0_linear_323_710)"/>
<defs>
<linearGradient id="paint0_linear_323_710" x1="-6.71752" y1="19.5658" x2="43.6785" y2="19.5471" gradientUnits="userSpaceOnUse">
<stop stop-color="#E700EC"/>
<stop offset="1" stop-color="#5500F0"/>
</linearGradient>
</defs>
</svg>
