<svg width="24" height="25" viewBox="0 0 24 25" fill="none" xmlns="http://www.w3.org/2000/svg">
<path d="M12 24.2229C18.6281 24.2229 24 18.851 24 12.2229C24 5.59478 18.6281 0.2229 12 0.2229C5.37188 0.2229 0 5.59478 0 12.2229C0 18.851 5.37188 24.2229 12 24.2229ZM9.34687 14.876C10.8094 16.3385 13.1859 16.3385 14.6484 14.876C15.0891 14.4354 15.8016 14.4354 16.2375 14.876C16.6734 15.3167 16.6781 16.0292 16.2375 16.4651C13.8937 18.8088 10.0969 18.8088 7.75312 16.4651C5.40937 14.1213 5.40937 10.3245 7.75312 7.98071C10.0969 5.63696 13.8937 5.63696 16.2375 7.98071C16.6781 8.42134 16.6781 9.13384 16.2375 9.56977C15.7969 10.0057 15.0844 10.0104 14.6484 9.56977C13.1859 8.10728 10.8094 8.10728 9.34687 9.56977C7.88437 11.0323 7.88437 13.4088 9.34687 14.8713V14.876Z" fill="white"/>
</svg>
