<svg width="48" height="48" viewBox="0 0 48 48" fill="none" xmlns="http://www.w3.org/2000/svg">
<path d="M40.808 7.17579C40.9112 6.00638 39.9897 5 38.8158 5H9.18424C8.01029 5 7.0888 6.00638 7.19198 7.17579L9.87916 37.6304C9.95195 38.4554 10.5257 39.1502 11.322 39.3777L23.4506 42.843C23.8097 42.9456 24.1903 42.9456 24.5494 42.843L36.678 39.3777C37.4743 39.1502 38.0481 38.4554 38.1208 37.6304L40.808 7.17579Z" fill="#0277BD"/>
<path d="M24 8V39.9L35.2 36.7L37.7 8H24Z" fill="#039BE5"/>
<path d="M33.1 13H24V17H28.9L28.6 21H24V25H28.4L28.1 29.5L24 30.9V35.1L31.9 32.5L32.6 21L33.1 13Z" fill="white"/>
<path d="M24 13V17H15.1L14.8 13H24ZM19.4 21L19.6 25H24V21H19.4ZM19.8 27H15.8L16.1 32.5L24 35.1V30.9L19.9 29.5L19.8 27Z" fill="#EEEEEE"/>
</svg>
