<svg width="48" height="56" viewBox="0 0 48 56" fill="none" xmlns="http://www.w3.org/2000/svg">
<path d="M48 8.93715V14.08C48 18.8157 37.2536 22.6514 24 22.6514C10.7464 22.6514 0 18.8157 0 14.08V8.93715C0 4.20144 10.7464 0.365723 24 0.365723C37.2536 0.365723 48 4.20144 48 8.93715ZM42.1286 23.3693C44.3571 22.5764 46.4036 21.5586 48 20.305V31.2229C48 35.9586 37.2536 39.7943 24 39.7943C10.7464 39.7943 0 35.9586 0 31.2229V20.305C1.59643 21.5693 3.64286 22.5764 5.87143 23.3693C10.6821 25.0836 17.0893 26.08 24 26.08C30.9107 26.08 37.3179 25.0836 42.1286 23.3693ZM0 37.4479C1.59643 38.7122 3.64286 39.7193 5.87143 40.5122C10.6821 42.2264 17.0893 43.2229 24 43.2229C30.9107 43.2229 37.3179 42.2264 42.1286 40.5122C44.3571 39.7193 46.4036 38.7014 48 37.4479V46.6514C48 51.3872 37.2536 55.2229 24 55.2229C10.7464 55.2229 0 51.3872 0 46.6514V37.4479Z" fill="url(#paint0_linear_326_542)"/>
<defs>
<linearGradient id="paint0_linear_326_542" x1="-6.72" y1="27.7943" x2="43.68" y2="27.7812" gradientUnits="userSpaceOnUse">
<stop stop-color="#E700EC"/>
<stop offset="1" stop-color="#5500F0"/>
</linearGradient>
</defs>
</svg>
