<svg width="25" height="19" viewBox="0 0 25 19" fill="none" xmlns="http://www.w3.org/2000/svg">
<path d="M2.34375 0.2229C1.0498 0.2229 0 1.27271 0 2.56665C0 3.30396 0.34668 3.99731 0.9375 4.44165L11.5625 12.4104C12.1191 12.8254 12.8809 12.8254 13.4375 12.4104L24.0625 4.44165C24.6533 3.99731 25 3.30396 25 2.56665C25 1.27271 23.9502 0.2229 22.6562 0.2229H2.34375ZM0 5.69165V15.8479C0 17.5715 1.40137 18.9729 3.125 18.9729H21.875C23.5986 18.9729 25 17.5715 25 15.8479V5.69165L14.375 13.6604C13.2617 14.4954 11.7383 14.4954 10.625 13.6604L0 5.69165Z" fill="white"/>
</svg>
