<svg width="48" height="48" viewBox="0 0 48 48" fill="none" xmlns="http://www.w3.org/2000/svg">
<path d="M41 24C41 33.4 33.4 41 24 41C14.6 41 7 33.4 7 24C7 14.6 14.6 7 24 7C33.4 7 41 14.6 41 24Z" fill="white"/>
<path d="M21 41.0001V35.5001C21 35.2001 21.2 35.0001 21.5 35.0001C21.8 35.0001 22 35.2001 22 35.5001V41.0001H24V34.5001C24 34.2001 24.2 34.0001 24.5 34.0001C24.7999 34.0001 25 34.2001 25 34.5001V41.0001H27V35.5001C27 35.2001 27.2 35.0001 27.5 35.0001C27.7999 35.0001 28 35.2001 28 35.5001V41.0001H29.7999C30 40.7001 30 40.4001 30 39.9001V36.0001C30 33.8001 28.1 30.8001 25.7 30.8001H23.2C20.9 30.8001 18.9 33.9001 18.9 36.0001V39.9001C18.9 40.3001 19 40.7001 19.1 41.0001H21ZM40.0999 26.4001C40.0999 26.4001 38.8 26.0001 37.7 26.0001H37.5999C36.4999 26.0001 34.7 26.3001 34.7 26.3001C34.6 26.3001 34.5999 26.3001 34.5999 26.2001C34.5999 26.1001 34.6 26.1001 34.7 26.1001C34.8 26.1001 36.6999 25.8001 37.7999 25.8001C38.9 25.8001 40.2 26.2001 40.2999 26.2001C40.3999 26.2001 40.4 26.3001 40.4 26.4001C40.2 26.3001 40.1999 26.4001 40.0999 26.4001ZM39.7999 27.2001C39.7999 27.2001 38.4 26.8001 37.2 26.8001C36.3 26.8001 34.1999 27.0001 34.0999 27.0001C33.9999 27.0001 34 27.0001 34 26.9001C34 26.8001 33.9999 26.8001 34.0999 26.8001C34.1999 26.8001 36.3 26.6001 37.2 26.6001C38.5 26.6001 39.7999 27.0001 39.7999 27.0001C39.8999 27.0001 39.9 27.1001 39.9 27.2001C39.9 27.1001 39.8999 27.2001 39.7999 27.2001ZM7.79995 26.4001C7.69995 26.4001 7.69995 26.4001 7.69995 26.3001C7.69995 26.2001 7.69995 26.2001 7.79995 26.1001C8.59995 25.9001 10.2 25.6001 11.1 25.6001C11.9 25.6001 14.6 25.8001 14.7 25.8001C14.8 25.8001 14.8 25.9001 14.8 25.9001C14.8 26.0001 14.7 26.0001 14.7 26.0001C14.7 26.0001 12 25.8001 11.2 25.8001C10.1 26.0001 8.59995 26.2001 7.79995 26.4001ZM8.19995 27.9001C8.19995 27.9001 8.09995 27.9001 8.09995 27.8001C8.09995 27.7001 8.09995 27.7001 8.09995 27.6001C8.19995 27.6001 9.49995 26.8001 11 26.6001C12.3 26.4001 15 26.7001 15.2 26.7001C15.3 26.7001 15.3 26.8001 15.3 26.8001C15.3 26.9001 15.2 26.9001 15.2 26.9001C15.2 26.9001 12.4 26.6001 11.1 26.8001C9.59995 27.1001 8.19995 27.9001 8.19995 27.9001Z" fill="#455A64"/>
<path d="M14.2 23.5C14.2 19.1 18.8 15 24.5 15C30.2 15 34.7999 19 34.7999 23.5C34.7999 28 31.5 31 24.5 31C17.5 31 14.2 27.9 14.2 23.5Z" fill="#455A64"/>
<path d="M28.6 16.3C28.6 16.3 30.3 14 33.4 14C34.6 15.2 33.8 18.8 33.4 19.8L28.6 16.3ZM20.4 16.3C20.4 16.3 18.7 14 15.6 14C14.4 15.2 15.2 18.8 15.6 19.8L20.4 16.3ZM20.1 35.9C20.1 35.9 17.8 35.9 17.3 35.9C16.1 35.9 15 35.4 14.5 34.4C13.9 33.3 13.4 32.1 11.9 31.1C11.6 30.9 11.8 30.7 12.3 30.7C12.8 30.8 13.7 30.9 14.4 31.8C15.1 32.7 15.9 33.8 17.2 33.8C18.5 33.8 19.9 33.8 20.7 32.9L20.1 35.9Z" fill="#455A64"/>
<path d="M24 4C13 4 4 13 4 24C4 35 13 44 24 44C35 44 44 35 44 24C44 13 35 4 24 4ZM24 40C15.2 40 8 32.8 8 24C8 15.2 15.2 8 24 8C32.8 8 40 15.2 40 24C40 32.8 32.8 40 24 40Z" fill="#00BCD4"/>
</svg>
