<svg width="24" height="25" viewBox="0 0 24 25" fill="none" xmlns="http://www.w3.org/2000/svg">
<path d="M8.02742 19.5947C8.02742 19.6915 7.91613 19.7689 7.77581 19.7689C7.61613 19.7835 7.50484 19.706 7.50484 19.5947C7.50484 19.498 7.61613 19.4205 7.75645 19.4205C7.90161 19.406 8.02742 19.4835 8.02742 19.5947ZM6.52258 19.377C6.48871 19.4738 6.58548 19.5851 6.73065 19.6141C6.85645 19.6625 7.00161 19.6141 7.03064 19.5173C7.05968 19.4205 6.96774 19.3093 6.82258 19.2657C6.69677 19.2318 6.55645 19.2802 6.52258 19.377ZM8.66129 19.2947C8.52097 19.3286 8.42419 19.4205 8.43871 19.5318C8.45323 19.6286 8.57903 19.6915 8.72419 19.6576C8.86452 19.6238 8.96129 19.5318 8.94677 19.4351C8.93226 19.3431 8.80161 19.2802 8.66129 19.2947ZM11.8452 0.752808C5.13387 0.752808 0 5.84797 0 12.5593C0 17.9254 3.37742 22.5173 8.20161 24.1335C8.82097 24.2447 9.03871 23.8625 9.03871 23.548C9.03871 23.248 9.02419 21.5931 9.02419 20.577C9.02419 20.577 5.6371 21.3028 4.92581 19.1351C4.92581 19.1351 4.37419 17.727 3.58065 17.3641C3.58065 17.3641 2.47258 16.6044 3.65806 16.6189C3.65806 16.6189 4.8629 16.7157 5.52581 17.8673C6.58548 19.7351 8.36129 19.198 9.05323 18.8786C9.16452 18.1044 9.47903 17.5673 9.82742 17.248C7.12258 16.948 4.39355 16.556 4.39355 11.9012C4.39355 10.5705 4.76129 9.90281 5.53548 9.05119C5.40968 8.73668 4.99839 7.4399 5.66129 5.76571C6.67258 5.45119 9 7.07216 9 7.07216C9.96774 6.80119 11.0081 6.66087 12.0387 6.66087C13.0694 6.66087 14.1097 6.80119 15.0774 7.07216C15.0774 7.07216 17.4048 5.44636 18.4161 5.76571C19.079 7.44474 18.6677 8.73668 18.5419 9.05119C19.3161 9.90765 19.7903 10.5754 19.7903 11.9012C19.7903 16.5705 16.9403 16.9431 14.2355 17.248C14.6806 17.6302 15.0581 18.356 15.0581 19.4931C15.0581 21.1238 15.0435 23.1415 15.0435 23.5383C15.0435 23.8528 15.2661 24.2351 15.8806 24.1238C20.7194 22.5173 24 17.9254 24 12.5593C24 5.84797 18.5565 0.752808 11.8452 0.752808ZM4.70323 17.4415C4.64032 17.4899 4.65484 17.6012 4.7371 17.6931C4.81452 17.7705 4.92581 17.8044 4.98871 17.7415C5.05161 17.6931 5.0371 17.5818 4.95484 17.4899C4.87742 17.4125 4.76613 17.3786 4.70323 17.4415ZM4.18064 17.0496C4.14677 17.1125 4.19516 17.1899 4.29194 17.2383C4.36935 17.2867 4.46613 17.2722 4.5 17.2044C4.53387 17.1415 4.48548 17.0641 4.38871 17.0157C4.29194 16.9867 4.21452 17.0012 4.18064 17.0496ZM5.74839 18.7722C5.67097 18.8351 5.7 18.9802 5.81129 19.0722C5.92258 19.1835 6.0629 19.198 6.12581 19.1206C6.18871 19.0576 6.15968 18.9125 6.0629 18.8205C5.95645 18.7093 5.81129 18.6947 5.74839 18.7722ZM5.19677 18.0609C5.11935 18.1093 5.11935 18.2351 5.19677 18.3464C5.27419 18.4576 5.40484 18.506 5.46774 18.4576C5.54516 18.3947 5.54516 18.2689 5.46774 18.1576C5.4 18.0464 5.27419 17.998 5.19677 18.0609Z" fill="white"/>
</svg>
