<svg width="48" height="48" viewBox="0 0 48 48" fill="none" xmlns="http://www.w3.org/2000/svg">
<path d="M40.808 7.17579C40.9112 6.00638 39.9897 5 38.8158 5H9.18424C8.01029 5 7.0888 6.00638 7.19198 7.17579L9.87916 37.6304C9.95195 38.4554 10.5257 39.1502 11.322 39.3777L23.4506 42.843C23.8097 42.9456 24.1903 42.9456 24.5494 42.843L36.678 39.3777C37.4743 39.1502 38.0481 38.4554 38.1208 37.6304L40.808 7.17579Z" fill="#E65100"/>
<path d="M24 8V39.9L35.2 36.7L37.7 8H24Z" fill="#FF6D00"/>
<path d="M24 25V21H32.6L31.9 32.5L24 35.1V30.9L28.1 29.5L28.4 25H24ZM32.9 17L33.2 13H24V17H32.9Z" fill="white"/>
<path d="M24 30.9V35.1L16.1 32.5L15.7 27H19.7L19.9 29.5L24 30.9ZM19.1 17H24V13H14.9L15.6 25H24V21H19.4L19.1 17Z" fill="#EEEEEE"/>
</svg>
