<svg width="32" height="33" viewBox="0 0 32 33" fill="none" xmlns="http://www.w3.org/2000/svg">
<path d="M16.0071 8.29431C11.4643 8.29431 7.79998 11.9586 7.79998 16.5015C7.79998 21.0443 11.4643 24.7086 16.0071 24.7086C20.55 24.7086 24.2143 21.0443 24.2143 16.5015C24.2143 11.9586 20.55 8.29431 16.0071 8.29431ZM16.0071 21.8372C13.0714 21.8372 10.6714 19.4443 10.6714 16.5015C10.6714 13.5586 13.0643 11.1657 16.0071 11.1657C18.95 11.1657 21.3428 13.5586 21.3428 16.5015C21.3428 19.4443 18.9428 21.8372 16.0071 21.8372ZM26.4643 7.95859C26.4643 9.02288 25.6071 9.87288 24.55 9.87288C23.4857 9.87288 22.6357 9.01574 22.6357 7.95859C22.6357 6.90145 23.4928 6.04431 24.55 6.04431C25.6071 6.04431 26.4643 6.90145 26.4643 7.95859ZM31.9 9.90145C31.7786 7.33717 31.1928 5.06574 29.3143 3.19431C27.4428 1.32288 25.1714 0.737165 22.6071 0.608594C19.9643 0.458594 12.0428 0.458594 9.39999 0.608594C6.84284 0.730022 4.57141 1.31574 2.69284 3.18717C0.814272 5.05859 0.2357 7.33002 0.107129 9.89431C-0.0428711 12.5372 -0.0428711 20.4586 0.107129 23.1014C0.228557 25.6657 0.814272 27.9372 2.69284 29.8086C4.57141 31.68 6.8357 32.2657 9.39999 32.3943C12.0428 32.5443 19.9643 32.5443 22.6071 32.3943C25.1714 32.2729 27.4428 31.6872 29.3143 29.8086C31.1857 27.9372 31.7714 25.6657 31.9 23.1014C32.05 20.4586 32.05 12.5443 31.9 9.90145ZM28.4857 25.9372C27.9286 27.3372 26.85 28.4157 25.4428 28.98C23.3357 29.8157 18.3357 29.6229 16.0071 29.6229C13.6786 29.6229 8.67141 29.8086 6.57141 28.98C5.17141 28.4229 4.09284 27.3443 3.52856 25.9372C2.69284 23.83 2.8857 18.83 2.8857 16.5015C2.8857 14.1729 2.69999 9.16574 3.52856 7.06574C4.0857 5.66574 5.16427 4.58716 6.57141 4.02288C8.67856 3.18717 13.6786 3.38002 16.0071 3.38002C18.3357 3.38002 23.3428 3.19431 25.4428 4.02288C26.8428 4.58002 27.9214 5.65859 28.4857 7.06574C29.3214 9.17288 29.1286 14.1729 29.1286 16.5015C29.1286 18.83 29.3214 23.8372 28.4857 25.9372Z" fill="white"/>
</svg>
