<svg width="24" height="25" viewBox="0 0 24 25" fill="none" xmlns="http://www.w3.org/2000/svg">
<path d="M15 0.365723C14.1703 0.365723 13.5 1.03604 13.5 1.86572C13.5 2.69541 14.1703 3.36572 15 3.36572H18.8766L9.44062 12.8063C8.85469 13.3923 8.85469 14.3438 9.44062 14.9298C10.0266 15.5157 10.9781 15.5157 11.5641 14.9298L21 5.48916V9.36572C21 10.1954 21.6703 10.8657 22.5 10.8657C23.3297 10.8657 24 10.1954 24 9.36572V1.86572C24 1.03604 23.3297 0.365723 22.5 0.365723H15ZM3.75 1.86572C1.67812 1.86572 0 3.54385 0 5.61572V20.6157C0 22.6876 1.67812 24.3657 3.75 24.3657H18.75C20.8219 24.3657 22.5 22.6876 22.5 20.6157V15.3657C22.5 14.536 21.8297 13.8657 21 13.8657C20.1703 13.8657 19.5 14.536 19.5 15.3657V20.6157C19.5 21.0282 19.1625 21.3657 18.75 21.3657H3.75C3.3375 21.3657 3 21.0282 3 20.6157V5.61572C3 5.20322 3.3375 4.86572 3.75 4.86572H9C9.82969 4.86572 10.5 4.19541 10.5 3.36572C10.5 2.53604 9.82969 1.86572 9 1.86572H3.75Z" fill="white"/>
</svg>
