<svg width="25" height="34" viewBox="0 0 25 34" fill="none" xmlns="http://www.w3.org/2000/svg">
<path d="M14.043 32.7229C17.3828 28.5432 25 18.413 25 12.7229C25 5.82186 19.401 0.2229 12.5 0.2229C5.59896 0.2229 0 5.82186 0 12.7229C0 18.413 7.61719 28.5432 10.957 32.7229C11.7578 33.719 13.2422 33.719 14.043 32.7229ZM12.5 16.8896C10.2018 16.8896 8.33333 15.0211 8.33333 12.7229C8.33333 10.4247 10.2018 8.55623 12.5 8.55623C14.7982 8.55623 16.6667 10.4247 16.6667 12.7229C16.6667 15.0211 14.7982 16.8896 12.5 16.8896Z" fill="white"/>
</svg>
