<svg width="40" height="40" viewBox="0 0 40 40" fill="none" xmlns="http://www.w3.org/2000/svg">
<path d="M20 0C8.972 0 0 8.972 0 20C0 31.028 8.972 40 20 40C31.028 40 40 31.028 40 20C40 8.972 31.028 0 20 0ZM20 3C29.374 3 37 10.626 37 20C37 25.852 34.0277 31.0201 29.5137 34.0801L15.7422 13.6602C15.3752 13.1132 14.6875 12.8745 14.0605 13.0645C13.4305 13.2585 13 13.841 13 14.5V27.5C13 28.328 13.672 29 14.5 29C15.328 29 16 28.328 16 27.5V19.4062L26.877 35.5332C24.771 36.4682 22.448 37 20 37C10.626 37 3 29.374 3 20C3 10.626 10.626 3 20 3ZM25.5 11C24.672 11 24 11.672 24 12.5V20.9863L27 25.2891V12.5C27 11.672 26.328 11 25.5 11Z" fill="white"/>
</svg>
