<svg width="48" height="48" viewBox="0 0 48 48" fill="none" xmlns="http://www.w3.org/2000/svg">
<path d="M17.204 19.1219L12.297 21.8369C12.113 21.9379 12 22.1259 12 22.3289V27.7619C12 27.9649 12.113 28.1519 12.297 28.2539L17.205 30.9709C17.388 31.0719 17.615 31.0719 17.798 30.9709L22.705 28.2539C22.887 28.1519 23 27.9649 23 27.7619V22.3289C23 22.1259 22.887 21.9389 22.703 21.8369L17.797 19.1219C17.705 19.0709 17.602 19.0459 17.5 19.0459C17.397 19.0459 17.295 19.0709 17.203 19.1219M42.451 24.0129L41.633 24.4649C41.602 24.4819 41.584 24.5129 41.584 24.5469V25.4529C41.584 25.4869 41.603 25.5179 41.633 25.5349L42.451 25.9879C42.482 26.0049 42.519 26.0049 42.55 25.9879L43.368 25.5349C43.398 25.5179 43.417 25.4869 43.417 25.4529V24.5469C43.417 24.5129 43.398 24.4819 43.367 24.4649L42.549 24.0129C42.534 24.0039 42.517 23.9999 42.5 23.9999C42.483 23.9999 42.466 24.0039 42.451 24.0129Z" fill="#388E3C"/>
<path d="M35.751 13.3638L33.362 12.0308C33.287 11.9888 33.195 11.9898 33.121 12.0338C33.047 12.0778 33.001 12.1568 33.001 12.2428L33 20.2948L30.797 19.0758C30.705 19.0248 30.602 18.9998 30.5 18.9998C30.398 18.9998 30.295 19.0248 30.203 19.0758H30.204L25.297 21.7908C25.113 21.8918 25 22.0798 25 22.2818V27.7148C25 27.9178 25.113 28.1048 25.297 28.2068L30.205 30.9238C30.388 31.0248 30.615 31.0248 30.798 30.9238L35.705 28.2068C35.887 28.1058 36 27.9178 36 27.7148V13.7878C36 13.6118 35.904 13.4498 35.751 13.3638ZM32.866 26.4578L30.636 27.6928C30.553 27.7388 30.45 27.7388 30.367 27.6928L28.136 26.4578C28.051 26.4118 28 26.3258 28 26.2338V23.7638C28 23.6718 28.051 23.5868 28.135 23.5398L30.366 22.3058C30.408 22.2828 30.453 22.2718 30.5 22.2718C30.547 22.2718 30.593 22.2838 30.635 22.3058L32.865 23.5398C32.949 23.5868 33 23.6728 33 23.7648V26.2348C33 26.3258 32.949 26.4118 32.866 26.4578Z" fill="#37474F"/>
<path d="M17.204 19.1219L12 27.7619C12 27.9649 12.113 28.1519 12.297 28.2539L17.205 30.9709C17.388 31.0719 17.615 31.0719 17.798 30.9709L23 22.3289C23 22.1259 22.887 21.9389 22.703 21.8369L17.797 19.1219C17.705 19.0709 17.602 19.0459 17.5 19.0459C17.397 19.0459 17.295 19.0709 17.203 19.1219" fill="#2E7D32"/>
<path d="M17.204 19.1219L12.297 21.8369C12.113 21.9379 12 22.1259 12 22.3289L17.204 30.9709C17.387 31.0719 17.614 31.0719 17.797 30.9709L22.704 28.2539C22.887 28.1519 23 27.9649 23 27.7619L17.797 19.1219C17.705 19.0709 17.602 19.0459 17.5 19.0459C17.397 19.0459 17.295 19.0709 17.203 19.1219" fill="#4CAF50"/>
<path d="M47.703 21.791L42.797 19.076C42.705 19.025 42.602 19 42.5 19C42.398 19 42.295 19.025 42.203 19.076L37.297 21.791C37.114 21.892 37 22.084 37 22.294V27.705C37 27.914 37.114 28.107 37.297 28.208L42.205 30.925C42.389 31.027 42.614 31.027 42.798 30.925L45.061 29.672C45.268 29.557 45.267 29.26 45.059 29.146L40.135 26.459C40.052 26.412 40 26.325 40 26.231V23.765C40 23.673 40.05 23.588 40.13 23.544L42.365 22.308H42.364C42.406 22.285 42.452 22.274 42.499 22.274C42.546 22.274 42.592 22.286 42.634 22.308L44.869 23.545C44.949 23.589 44.999 23.674 44.999 23.766V25.778C44.999 25.864 45.045 25.944 45.12 25.987C45.195 26.029 45.287 26.029 45.362 25.986L47.76 24.593C47.908 24.507 48 24.348 48 24.176V22.296C48 22.085 47.886 21.892 47.703 21.791ZM10.703 21.791L5.797 19.076C5.705 19.025 5.602 19 5.5 19C5.398 19 5.295 19.025 5.203 19.076L0.297 21.791C0.114 21.892 0 22.084 0 22.294V29.759C0 29.845 0.046 29.925 0.121 29.968C0.196 30.01 0.288 30.01 0.363 29.967L2.761 28.574C2.909 28.488 3 28.329 3 28.157V23.764C3 23.672 3.05 23.587 3.13 23.543L5.365 22.307C5.407 22.284 5.453 22.273 5.5 22.273C5.547 22.273 5.593 22.285 5.635 22.307L7.87 23.544C7.95 23.588 8 23.673 8 23.765V28.158C8 28.33 8.091 28.489 8.24 28.575L10.638 29.968C10.713 30.011 10.805 30.011 10.88 29.969C10.954 29.925 11 29.845 11 29.759V22.295C11 22.085 10.886 21.892 10.703 21.791Z" fill="#37474F"/>
</svg>
