<svg width="25" height="26" viewBox="0 0 25 26" fill="none" xmlns="http://www.w3.org/2000/svg">
<path d="M8.0514 1.42512C7.67544 0.516957 6.68428 0.03358 5.73705 0.292358L1.44037 1.46418C0.590794 1.69855 0 2.47 0 3.34886C0 15.4284 9.79449 25.2229 21.874 25.2229C22.7529 25.2229 23.5244 24.6321 23.7587 23.7825L24.9305 19.4858C25.1893 18.5386 24.7059 17.5475 23.7978 17.1715L19.1105 15.2185C18.3146 14.8864 17.3918 15.1159 16.8498 15.7848L14.8773 18.192C11.4399 16.5661 8.65685 13.783 7.03094 10.3456L9.43806 8.37794C10.107 7.83109 10.3365 6.91316 10.0044 6.1173L8.0514 1.43V1.42512Z" fill="white"/>
</svg>
