<svg width="48" height="48" viewBox="0 0 48 48" fill="none" xmlns="http://www.w3.org/2000/svg">
<g clip-path="url(#clip0_843_169)">
<path d="M47.8037 27.0475C49.4834 13.8978 40.1971 1.87599 27.0714 0.19629C13.9458 -1.48341 1.87599 7.80292 0.19629 20.9286C-1.48341 34.0542 7.80292 46.1 20.9286 47.8037C34.0782 49.4834 46.1 40.1971 47.8037 27.0475Z" fill="#FF6C37"/>
<path d="M32.6623 15.4096L22.5361 25.5358L19.6807 22.6803C29.6389 12.7221 30.6227 13.5859 32.6623 15.4096Z" fill="white"/>
<path d="M22.5362 25.7757C22.4642 25.7757 22.4162 25.7517 22.3682 25.7037L19.4887 22.8482C19.3928 22.7523 19.3928 22.6083 19.4887 22.5123C29.6149 12.3861 30.6707 13.346 32.8063 15.2656C32.8543 15.3136 32.8783 15.3616 32.8783 15.4336C32.8783 15.5056 32.8543 15.5536 32.8063 15.6016L22.6802 25.7037C22.6562 25.7517 22.5842 25.7757 22.5362 25.7757ZM20.0166 22.6803L22.5362 25.1998L32.3024 15.4336C30.5267 13.8499 29.327 13.37 20.0166 22.6803Z" fill="#FF6C37"/>
<path d="M25.4397 28.4393L22.6802 25.6798L32.8064 15.5536C35.5179 18.2891 31.4626 22.7283 25.4397 28.4393Z" fill="white"/>
<path d="M25.4398 28.6792C25.3678 28.6792 25.3198 28.6552 25.2718 28.6072L22.5123 25.8477C22.4644 25.7997 22.4644 25.7517 22.4644 25.6797C22.4644 25.6077 22.4884 25.5598 22.5363 25.5118L32.6625 15.3856C32.7585 15.2896 32.9025 15.2896 32.9985 15.3856C33.6223 15.9615 33.9583 16.7773 33.9343 17.6172C33.8863 20.2807 30.8628 23.6641 25.6318 28.6072C25.5598 28.6552 25.4878 28.6792 25.4398 28.6792ZM23.0163 25.6797C24.552 27.2394 25.1999 27.8633 25.4398 28.1033C29.4711 24.264 33.3824 20.3287 33.4064 17.6172C33.4304 16.9933 33.1904 16.3694 32.7825 15.8895L23.0163 25.6797Z" fill="#FF6C37"/>
<path d="M19.7287 22.7522L21.7683 24.7919C21.8163 24.8399 21.8163 24.8878 21.7683 24.9358C21.7443 24.9598 21.7443 24.9598 21.7203 24.9598L17.4971 25.8717C17.2811 25.8957 17.0891 25.7517 17.0412 25.5357C17.0172 25.4158 17.0652 25.2958 17.1371 25.2238L19.5847 22.7762C19.6327 22.7282 19.7047 22.7042 19.7287 22.7522Z" fill="white"/>
<path d="M17.4252 26.1117C17.0652 26.1117 16.8013 25.8237 16.8013 25.4638C16.8013 25.2958 16.8733 25.1279 16.9932 25.0079L19.4408 22.5603C19.5848 22.4403 19.7767 22.4403 19.9207 22.5603L21.9603 24.6C22.1043 24.7199 22.1043 24.9359 21.9603 25.0799C21.9123 25.1279 21.8644 25.1519 21.7924 25.1758L17.5691 26.0877C17.5211 26.0877 17.4731 26.1117 17.4252 26.1117ZM19.6568 23.0162L17.3052 25.3678C17.2572 25.4158 17.2332 25.4878 17.2812 25.5598C17.3052 25.6318 17.3772 25.6558 17.4492 25.6318L21.4084 24.7679L19.6568 23.0162Z" fill="#FF6C37"/>
<path d="M38.0135 9.79461C36.4778 8.30688 34.0062 8.35487 32.5185 9.91459C31.0308 11.4743 31.0787 13.9219 32.6385 15.4096C33.9102 16.6334 35.8299 16.8493 37.3416 15.9375L34.6061 13.202L38.0135 9.79461Z" fill="white"/>
<path d="M35.326 16.7294C33.0464 16.7294 31.1987 14.8817 31.1987 12.6021C31.1987 10.3225 33.0464 8.47485 35.326 8.47485C36.3818 8.47485 37.4136 8.88278 38.1815 9.62665C38.2295 9.67464 38.2535 9.72263 38.2535 9.79462C38.2535 9.8666 38.2295 9.91459 38.1815 9.96259L34.9421 13.202L37.4856 15.7455C37.5816 15.8415 37.5816 15.9855 37.4856 16.0815C37.4616 16.1055 37.4616 16.1055 37.4376 16.1295C36.8137 16.5134 36.0699 16.7294 35.326 16.7294ZM35.326 8.97876C33.3104 8.97876 31.6786 10.6105 31.7026 12.6261C31.7026 14.6417 33.3343 16.2734 35.35 16.2495C35.9019 16.2495 36.4538 16.1295 36.9577 15.8655L34.4381 13.37C34.3902 13.322 34.3662 13.274 34.3662 13.202C34.3662 13.13 34.3902 13.082 34.4381 13.034L37.6536 9.81861C37.0057 9.26671 36.1898 8.97876 35.326 8.97876Z" fill="#FF6C37"/>
<path d="M38.0853 9.86659L38.0373 9.8186L34.606 13.202L37.3175 15.9135C37.5814 15.7455 37.8454 15.5536 38.0613 15.3376C39.5971 13.8259 39.5971 11.3783 38.0853 9.86659Z" fill="white"/>
<path d="M37.3417 16.1775C37.2697 16.1775 37.2217 16.1535 37.1737 16.1055L34.4382 13.37C34.3902 13.322 34.3662 13.274 34.3662 13.202C34.3662 13.13 34.3902 13.0821 34.4382 13.0341L37.8456 9.62667C37.9416 9.53069 38.0855 9.53069 38.1815 9.62667L38.2535 9.67467C39.8612 11.2824 39.8612 13.8739 38.2775 15.5056C38.0375 15.7456 37.7736 15.9615 37.4856 16.1295C37.4137 16.1535 37.3657 16.1775 37.3417 16.1775ZM34.9421 13.202L37.3657 15.6256C37.5576 15.5056 37.7496 15.3376 37.8936 15.1937C39.2613 13.8259 39.3333 11.5943 38.0136 10.1546L34.9421 13.202Z" fill="#FF6C37"/>
<path d="M33.0703 15.8415C32.4944 15.2656 31.5585 15.2656 30.9826 15.8415L21.9363 24.8878L23.448 26.3996L33.0223 18.0011C33.6462 17.4732 33.6942 16.5373 33.1663 15.9135C33.1183 15.8895 33.0943 15.8655 33.0703 15.8415Z" fill="white"/>
<path d="M23.424 26.6396C23.3521 26.6396 23.3041 26.6156 23.2561 26.5676L21.7444 25.0559C21.6484 24.9599 21.6484 24.8159 21.7444 24.72L30.7907 15.6736C31.4626 15.0017 32.5424 15.0017 33.2143 15.6736C33.8862 16.3455 33.8862 17.4253 33.2143 18.0972C33.1903 18.1211 33.1663 18.1451 33.1423 18.1691L23.568 26.5676C23.544 26.6156 23.496 26.6396 23.424 26.6396ZM22.2723 24.8879L23.448 26.0637L32.8543 17.8092C33.3823 17.3773 33.4302 16.5854 32.9983 16.0575C32.5664 15.5296 31.7745 15.4816 31.2466 15.9135C31.2226 15.9375 31.1986 15.9615 31.1507 15.9855L22.2723 24.8879Z" fill="#FF6C37"/>
<path d="M15.0015 35.182C14.9055 35.23 14.8575 35.326 14.8815 35.422L15.2894 37.1497C15.3854 37.3896 15.2414 37.6776 14.9775 37.7496C14.7855 37.8215 14.5696 37.7496 14.4496 37.6056L11.8101 34.9901L20.4245 26.3756L23.4 26.4236L25.4156 28.4392C24.9357 28.8472 22.0322 31.6547 15.0015 35.182Z" fill="white"/>
<path d="M14.8096 37.9895C14.6176 37.9895 14.4257 37.9175 14.3057 37.7735L11.6902 35.158C11.6422 35.11 11.6182 35.062 11.6182 34.99C11.6182 34.918 11.6422 34.87 11.6902 34.8221L20.3046 26.2076C20.3526 26.1596 20.4246 26.1356 20.4726 26.1356L23.448 26.1836C23.52 26.1836 23.568 26.2076 23.616 26.2556L25.6316 28.2712C25.6796 28.3192 25.7036 28.3912 25.7036 28.4632C25.7036 28.5352 25.6796 28.5832 25.6076 28.6312L25.4397 28.7751C22.8961 31.0067 19.4408 33.2383 15.1455 35.374L15.5535 37.0776C15.6254 37.3896 15.4815 37.7255 15.1935 37.8935C15.0495 37.9655 14.9296 37.9895 14.8096 37.9895ZM12.1701 34.99L14.6416 37.4376C14.7136 37.5576 14.8576 37.6056 14.9776 37.5336C15.0975 37.4616 15.1455 37.3176 15.0735 37.1976L14.6656 35.4699C14.6176 35.254 14.7136 35.062 14.9056 34.966C19.1528 32.8304 22.5842 30.6228 25.1037 28.4392L23.3281 26.6635L20.5686 26.6155L12.1701 34.99Z" fill="#FF6C37"/>
<path d="M9.77046 37.0537L11.8341 34.9901L14.9055 38.0616L10.0104 37.7256C9.79446 37.7016 9.65049 37.5097 9.67448 37.2937C9.67448 37.1977 9.69848 37.1017 9.77046 37.0537Z" fill="white"/>
<path d="M14.9056 38.2774L9.98648 37.9415C9.62655 37.9175 9.38659 37.6056 9.41059 37.2456C9.43458 37.1016 9.48257 36.9577 9.60255 36.8617L11.6662 34.7981C11.7622 34.7021 11.9061 34.7021 12.0021 34.7981L15.0736 37.8695C15.1456 37.9415 15.1695 38.0375 15.1216 38.1335C15.0736 38.2294 15.0016 38.2774 14.9056 38.2774ZM11.8341 35.326L9.93849 37.2216C9.8665 37.2696 9.8665 37.3896 9.93849 37.4376C9.96249 37.4616 9.98648 37.4856 10.0345 37.4856L14.2817 37.7735L11.8341 35.326Z" fill="#FF6C37"/>
<path d="M19.5847 27.4794C19.4407 27.4794 19.3447 27.3594 19.3447 27.2394C19.3447 27.1674 19.3687 27.1194 19.4167 27.0714L21.7443 24.7439C21.8403 24.6479 21.9843 24.6479 22.0802 24.7439L23.592 26.2556C23.6639 26.3276 23.6879 26.3996 23.6639 26.4955C23.64 26.5675 23.568 26.6395 23.472 26.6635L19.6327 27.4794C19.6087 27.4794 19.5847 27.4794 19.5847 27.4794ZM21.9123 25.2478L20.3285 26.8315L22.9201 26.2796L21.9123 25.2478Z" fill="#FF6C37"/>
<path d="M23.4002 26.4236L20.7606 26.9995C20.5687 27.0475 20.3767 26.9276 20.3287 26.7356C20.3047 26.6156 20.3287 26.4956 20.4247 26.3996L21.8884 24.9359L23.4002 26.4236Z" fill="white"/>
<path d="M20.7124 27.2394C20.3765 27.2394 20.1125 26.9755 20.1125 26.6395C20.1125 26.4716 20.1845 26.3276 20.2805 26.2076L21.7443 24.7439C21.8402 24.6479 21.9842 24.6479 22.0802 24.7439L23.5919 26.2556C23.6639 26.3276 23.6879 26.3996 23.6639 26.4955C23.6399 26.5675 23.5679 26.6395 23.4719 26.6635L20.8324 27.2394C20.7844 27.2394 20.7364 27.2394 20.7124 27.2394ZM21.9122 25.2478L20.6165 26.5435C20.5685 26.5915 20.5685 26.6395 20.5925 26.6875C20.6165 26.7355 20.6644 26.7595 20.7364 26.7595L22.944 26.2796L21.9122 25.2478Z" fill="#FF6C37"/>
<path d="M38.1095 12.1702C38.0615 12.0262 37.8935 11.9542 37.7495 12.0022C37.6056 12.0502 37.5336 12.2182 37.5816 12.3622C37.5816 12.3862 37.6056 12.4102 37.6056 12.4342C37.7495 12.7221 37.7016 13.082 37.5096 13.346C37.4136 13.466 37.4376 13.6339 37.5336 13.7299C37.6536 13.8259 37.8215 13.8019 37.9175 13.6819C38.2775 13.226 38.3494 12.6501 38.1095 12.1702Z" fill="#FF6C37"/>
</g>
<defs>
<clipPath id="clip0_843_169">
<rect width="48" height="48" fill="white"/>
</clipPath>
</defs>
</svg>
