<svg width="48" height="48" viewBox="0 0 48 48" fill="none" xmlns="http://www.w3.org/2000/svg">
<path d="M24 34C11.1 34 1 29.6 1 24C1 18.4 11.1 14 24 14C36.9 14 47 18.4 47 24C47 29.6 36.9 34 24 34ZM24 16C11.4 16 3 20.1 3 24C3 27.9 11.4 32 24 32C36.6 32 45 27.9 45 24C45 20.1 36.6 16 24 16Z" fill="#00E2FF"/>
<path d="M15.1 44.5999C14.1 44.5999 13.3 44.3999 12.5 43.8999C7.59996 41.0999 8.89996 30.1999 15.3 19C18.3 13.8 21.9999 9.39996 25.5999 6.59996C29.4999 3.59996 32.9999 2.69996 35.3999 4.09996C37.8999 5.49996 38.7999 8.99996 38.1999 13.9C37.5999 18.5 35.5999 23.9 32.5999 29.0999C29.5999 34.2999 25.8999 38.6999 22.2999 41.4999C19.7 43.4999 17.2 44.5999 15.1 44.5999ZM32.8999 5.39996C31.2999 5.39996 29.1999 6.29996 26.8999 8.09996C23.4999 10.8 20 15 17.1 20C10.8 30.8999 10.2 40.2999 13.5 42.1999C15.2 43.1999 18 42.2999 21.1 39.8999C24.4999 37.1999 27.9999 32.9999 30.8999 27.9999C33.7999 23 35.6999 17.9 36.2999 13.6C36.7999 9.59996 36.1999 6.79996 34.4999 5.79996C33.9999 5.59996 33.4999 5.39996 32.8999 5.39996Z" fill="#00E2FF"/>
<path d="M33 44.6C28 44.6 20.8 38.5 15.4001 29.0001C8.90006 17.8001 7.60006 6.90007 12.5001 4.10007C17.4001 1.30007 26.2 7.80007 32.7 19.0001C35.7 24.2001 37.7 29.6001 38.3 34.2001C39 39.1 38 42.5 35.5 44C34.7 44.4 33.9 44.6 33 44.6ZM13.5001 5.80007C10.2001 7.70007 10.8001 17.1001 17.1001 28.0001C23.4 38.9 31.2 44.1 34.5 42.2C36.2 41.2 36.8 38.4 36.3 34.4001C35.7 30.1001 33.8 25.0001 30.9 20.0001C24.6 9.10007 16.8001 3.90007 13.5001 5.80007Z" fill="#00E2FF"/>
<path d="M24 28C26.2091 28 28 26.2091 28 24C28 21.7909 26.2091 20 24 20C21.7909 20 20 21.7909 20 24C20 26.2091 21.7909 28 24 28Z" fill="#00E2FF"/>
</svg>
