<svg width="25" height="26" viewBox="0 0 25 26" fill="none" xmlns="http://www.w3.org/2000/svg">
<path d="M24.3213 0.49628C24.8145 0.838077 25.0733 1.4289 24.9805 2.01972L21.8555 22.3322C21.7822 22.8058 21.4942 23.2209 21.0742 23.4553C20.6543 23.6896 20.1514 23.7189 19.7071 23.5334L13.8672 21.1066L10.5225 24.7248C10.0879 25.1984 9.40432 25.3547 8.80373 25.1203C8.20315 24.8859 7.81252 24.3049 7.81252 23.6603V19.5783C7.81252 19.383 7.88576 19.1975 8.0176 19.0559L16.2012 10.1252C16.4844 9.81757 16.4746 9.34394 16.1817 9.05097C15.8887 8.758 15.4151 8.73847 15.1074 9.01679L5.1758 17.84L0.864278 15.6818C0.3467 15.423 0.0146687 14.9055 2.02903e-05 14.3293C-0.0146281 13.7531 0.288106 13.216 0.786153 12.9279L22.6612 0.427921C23.1836 0.13007 23.8281 0.159366 24.3213 0.49628Z" fill="#EAFAFF"/>
</svg>
