<svg width="32" height="27" viewBox="0 0 32 27" fill="none" xmlns="http://www.w3.org/2000/svg">
<path d="M28.7106 6.70515C28.7309 6.9894 28.7309 7.27371 28.7309 7.55796C28.7309 16.228 22.132 26.2178 10.0711 26.2178C6.35531 26.2178 2.90356 25.1417 0 23.2737C0.527937 23.3346 1.0355 23.3549 1.58375 23.3549C4.64969 23.3549 7.47206 22.3194 9.72587 20.5529C6.84262 20.492 4.42637 18.6037 3.59387 16.0047C4 16.0655 4.40606 16.1062 4.8325 16.1062C5.42131 16.1062 6.01019 16.0249 6.55837 15.8828C3.55331 15.2737 1.29944 12.6341 1.29944 9.44628V9.36509C2.1725 9.8524 3.18781 10.157 4.26388 10.1975C2.49738 9.01984 1.34006 7.00972 1.34006 4.73559C1.34006 3.51734 1.66488 2.40059 2.23344 1.42596C5.46187 5.40565 10.3147 8.00459 15.7563 8.2889C15.6548 7.80159 15.5938 7.29403 15.5938 6.7864C15.5938 3.17215 18.5177 0.228027 22.1522 0.228027C24.0405 0.228027 25.7461 1.0199 26.9441 2.29909C28.4263 2.01484 29.8476 1.46659 31.1065 0.71534C30.6191 2.23821 29.5836 3.5174 28.2232 4.32953C29.5431 4.18746 30.8222 3.8219 31.9999 3.31434C31.1066 4.61378 29.9898 5.77109 28.7106 6.70515Z" fill="white"/>
</svg>
