<svg width="48" height="48" viewBox="0 0 48 48" fill="none" xmlns="http://www.w3.org/2000/svg">
<path d="M44 11.1099V36.8899C44 38.1599 43.21 39.2899 42.02 39.7099L33.2 43.8499L34 32.9999V14.9999L33.2 4.1499L42.02 8.2899C43.21 8.7099 44 9.8399 44 11.1099Z" fill="#29B6F6"/>
<path d="M9.00004 33.8958L34 14.9998V5.35285C34 4.15485 32.518 3.59485 31.725 4.49285L4.65804 29.2388C3.75804 30.0688 3.80904 31.5058 4.76504 32.2708C4.76504 32.2708 6.08904 33.5028 6.56804 33.8449C7.30404 34.3699 8.27104 34.4298 9.00004 33.8958Z" fill="#0277BD"/>
<path d="M9.00004 14.1042L34 33.0002V42.6472C34 43.8452 32.518 44.4052 31.725 43.5072L4.65804 18.7612C3.75804 17.9312 3.80904 16.4942 4.76504 15.7292C4.76504 15.7292 6.08904 14.4972 6.56804 14.1552C7.30404 13.6302 8.27104 13.5702 9.00004 14.1042Z" fill="#0288D1"/>
</svg>
